<?xml version="1.0" encoding="utf-8"?>
<!-- Generator: Adobe Illustrator 16.0.0, SVG Export Plug-In . SVG Version: 6.00 Build 0)  -->
<!DOCTYPE svg PUBLIC "-//W3C//DTD SVG 1.1//EN" "http://www.w3.org/Graphics/SVG/1.1/DTD/svg11.dtd">
<svg version="1.1" id="eqxiu" xmlns="http://www.w3.org/2000/svg" xmlns:xlink="http://www.w3.org/1999/xlink" x="0px" y="0px"
	 width="141.016px" height="109.039px" viewBox="0 0 141.016 109.039" enable-background="new 0 0 141.016 109.039"
	 xml:space="preserve">
<g id="Background">
</g>
<path fill="#F6A2B6" d="M122.681,71.725c-3.768,0-10.549,2.765-18.084,12.308c-7.534,9.545-17.081,4.521-30.14,7.534
	c-13.062,3.015-36.169-8.539-53.5-8.035c-17.33,0.5-11.304-4.521-9.293-7.285c2.009-2.762,13.311-3.014,13.311-3.014
	s-4.018,0.25-6.529-3.265c-2.512-3.518,11.052-5.274,16.075-5.528c5.024-0.25,14.317-5.021,14.317-5.021
	C45.321,51.631,30,43.343,20.957,44.85c-9.041,1.507-19.089,0.503-16.326-3.014c2.762-3.517,17.33-1.757,17.33-1.757
	c-10.047-0.502-28.883-3.015-19.34-6.782c9.545-3.768,20.597,1.758,20.597,1.758C12.669,31.035-1.899,21.241,3.375,17.724
	c5.273-3.517,25.871,12.56,25.871,12.56C21.461,25.512,7.645,11.696,6.389,5.166c-1.255-6.53,7.033-6.28,19.09,9.795
	c12.057,16.076,34.158,20.847,45.21,21.099c11.053,0.251,18.837,1.507,25.869,5.526c7.031,4.019,10.549,4.269,15.573,1.255
	c5.023-3.014,13.812-2.26,20.093,2.513c6.279,4.772,4.021,16.326,4.021,16.326C134.234,69.465,126.449,71.725,122.681,71.725z"/>
<path fill="none" stroke="#9C5708" stroke-width="1.507" stroke-linecap="round" stroke-linejoin="round" stroke-miterlimit="10" d="
	M96.785,99.223c-4.773-2.261-9.797,0.752-9.797,0.752c-1.507-2.26-12.578-10.707-12.578-10.707 M89.656,98.875L89,102.99
	 M87.436,109.039c-2.826-3.211-11.354-2.189-11.354-2.189c-1.528-6.832-12.86-17.42-12.86-17.42"/>
<path fill="none" stroke="#231F20" stroke-width="1.507" stroke-linecap="round" stroke-linejoin="round" stroke-miterlimit="10" d="
	M129.566,58.46c0,0,1.297,4.017-3.727,3.515c-5.025-0.502-2.262-7.787-2.262-7.787"/>
<path fill="#F15D22" d="M136.244,61.68c4.02,1.256,4.771,11.553,4.771,11.553c-2.011-3.768-11.449-3.316-11.449-3.316
	C130.426,63.833,136.244,61.68,136.244,61.68z"/>
<path fill="#FBC9BF" d="M78.832,72.021c0,0,0.002,14.57-24.614,10.049C54.218,82.07,74.812,81.568,78.832,72.021z M76.82,79.979
	c24.615,4.521,24.613-10.045,24.613-10.045C97.415,79.475,76.82,79.979,76.82,79.979z M33,80.316
	c24.615,4.521,24.613-10.049,24.613-10.049C53.596,79.812,33,80.316,33,80.316z M58.049,71.602
	c24.615,4.521,24.613-10.045,24.613-10.045C78.644,71.098,58.049,71.602,58.049,71.602z M43.414,67.413
	c24.614,4.521,24.612-10.048,24.612-10.048C64.009,66.91,43.414,67.413,43.414,67.413z M9.459,8.118
	c6.631-4.962,19.082,14.774,19.082,14.774C13.205-4.699,9.459,8.118,9.459,8.118z M6.141,23.914
	c-0.571-7.583,17.174,4.652,17.174,4.652C-0.66,10.511,6.141,23.914,6.141,23.914z M8.239,37.647
	c-5.617-4.351,14.979-2.593,14.979-2.593C-5.855,30.786,8.239,37.647,8.239,37.647z M9.546,43.891
	c-5.493-2.944,16.29-3.165,16.29-3.165C-2.074,39.976,9.546,43.891,9.546,43.891z"/>
</svg>
