<?xml version="1.0" encoding="utf-8"?>
<!-- Generator: Adobe Illustrator 16.0.0, SVG Export Plug-In . SVG Version: 6.00 Build 0)  -->
<!DOCTYPE svg PUBLIC "-//W3C//DTD SVG 1.1//EN" "http://www.w3.org/Graphics/SVG/1.1/DTD/svg11.dtd">
<svg version="1.1" id="eqxiu" xmlns="http://www.w3.org/2000/svg" xmlns:xlink="http://www.w3.org/1999/xlink" x="0px" y="0px"
	 width="115.777px" height="106.904px" viewBox="0 0 115.777 106.904" enable-background="new 0 0 115.777 106.904"
	 xml:space="preserve">
<g id="Background">
</g>
<path fill="#68C8C6" d="M58.608,33.743c10.354,5.472,13.479,17.582,13.872,22.271c0.392,4.688,11.722,12.308,17.387,14.849
	c5.665,2.539,27.742,12.697,25.788,16.8c-1.954,4.104-21.882-5.47-21.882-5.47s22.468,14.261,14.849,17.388
	c-7.619,3.125-19.73-10.16-19.73-10.16c0.978,0.586,18.362,18.952,6.837,17.39c-11.525-1.564-16.41-18.755-16.41-18.755
	c0.782,5.273,4.299,15.433-0.586,12.308c-4.885-3.127-10.745-23.249-10.745-23.249c-51.187,7.229-54.701-35.751-55.482-41.612
	C11.723,29.642,6.84,17.139,8.012,8.348C9.184-0.443,18.755-0.25,23.249,0.142c4.494,0.389,12.895,5.666,13.479,11.526
	c0.587,5.86,2.931,10.354,2.931,10.354C42.004,24.757,48.255,28.273,58.608,33.743z"/>
<path fill="#F15D22" d="M7.881,12.815C5.799,9.862,0,5.024,0,5.024c4.688-0.393,8.866,0.332,8.866,0.332
	C9.917,10.572,7.881,12.815,7.881,12.815z"/>
<path fill="none" stroke="#231F20" stroke-width="1.1722" stroke-linecap="round" stroke-linejoin="round" stroke-miterlimit="10" d="
	M18.724,10.107c0,0,1.009,3.122-2.899,2.732c-3.908-0.392-1.758-6.058-1.758-6.058"/>
<path fill="none" stroke="#9C5708" stroke-width="1.1722" stroke-linecap="round" stroke-linejoin="round" stroke-miterlimit="10" d="
	M48.505,77.34c0,0-4.938,6.224-8.648,7.198c-3.713,0.979-7.033,0-7.033,0 M43.762,86.296l-2.258-2.473 M50.608,85.664
	c6.004-1.863,5.562-9.111,5.562-9.111 M54.582,82.813c0,0,1.684,1.03,3.313,1.383"/>
<path fill="#9FFFD4" d="M40.272,49.956c-11.094-1.046-10.886-9.002-10.886-9.002C32.107,46.815,40.272,49.956,40.272,49.956z
	 M40.409,44.098c0,0-0.208,7.956,10.886,9.002C51.295,53.1,43.13,49.959,40.409,44.098z M33.51,35.888c0,0,1.182,7.868,12.287,6.97
	C45.797,42.857,37.21,41.186,33.51,35.888z M21.881,30.812c0,0-2.333,10.142,4.494,19.538c6.181,8.505,17.973,18.752,23.639,21.293
	c5.667,2.539,7.618,0.194,5.86-3.321s-3.319-5.078-3.319-5.078s7.619,10.744,10.744,9.377c3.125-1.368-6.057-12.308-6.057-12.894
	s0.978-1.759-0.586-6.645c-1.562-4.884-6.446-15.042-10.94-16.8c0,0,12.56,17.859,8.582,23.302c0,0-5.232,0.208-8.583-5.024
	c0,0,8.375,12.979,2.723,11.514C42.784,64.608,23.316,50.584,21.881,30.812z"/>
</svg>
